	<svg xmlns="http://www.w3.org/2000/svg" viewBox="0 0 146 28">
				<path d="M29.197 6.347h4.348l3.382 8.891 3.593-8.891h3.232l3.623 8.891 3.352-8.891h4.348l-6.13 14.918h-3.02l-3.774-8.861-3.805 8.86h-3.019l-6.13-14.917zm35.632 3.774c-.543-.527-1.298-.79-2.264-.79s-1.752.243-2.356.73c-.604.487-1.006 1.179-1.208 2.074h6.794c-.1-.816-.422-1.487-.966-2.014zm-9.33.612a7.446 7.446 0 0 1 1.54-2.492 6.956 6.956 0 0 1 2.43-1.655c.957-.398 2.029-.597 3.216-.597 1.148 0 2.184.189 3.11.567.927.378 1.711.91 2.356 1.596.644.686 1.137 1.522 1.48 2.506.341.985.513 2.074.513 3.267V15H59.03l.03.06c.121.497.317.925.59 1.283a3.83 3.83 0 0 0 2.143 1.417c.433.11.87.164 1.314.164.906 0 1.715-.14 2.43-.417a6.233 6.233 0 0 0 1.857-1.105l1.661 3.253c-.624.517-1.419.974-2.385 1.372-.967.398-2.175.597-3.624.597-1.268 0-2.406-.2-3.412-.597-1.007-.398-1.857-.945-2.552-1.64-.694-.697-1.223-1.522-1.585-2.477s-.543-1.99-.543-3.103a8.59 8.59 0 0 1 .543-3.073zm16.82-.135c.402-.964.96-1.79 1.675-2.476s1.566-1.213 2.552-1.581c.986-.368 2.063-.552 3.23-.552 1.209 0 2.296.194 3.262.581.966.388 1.792.92 2.476 1.597l-2.265 3.162a5.924 5.924 0 0 0-1.479-1.059c-.564-.288-1.228-.433-1.993-.433a4.27 4.27 0 0 0-1.57.284 3.65 3.65 0 0 0-1.254.806 3.757 3.757 0 0 0-.83 1.253c-.201.487-.302 1.029-.302 1.626s.1 1.138.302 1.626c.202.487.478.905.83 1.253.352.348.77.617 1.254.806.483.189 1.006.283 1.57.283.765 0 1.444-.149 2.038-.447a5.95 5.95 0 0 0 1.525-1.074l2.204 3.162c-.644.637-1.46 1.164-2.446 1.581-.986.418-2.113.627-3.382.627-1.147 0-2.214-.184-3.2-.552a7.18 7.18 0 0 1-2.537-1.581 7.408 7.408 0 0 1-1.66-2.462c-.403-.955-.605-2.029-.605-3.222 0-1.174.202-2.243.604-3.208zm15.49 10.666V.38h4.017v20.885h-4.017zm12.622-6.176c-.624.1-1.092.294-1.404.582a1.387 1.387 0 0 0-.468 1.06c0 .477.182.86.544 1.148.362.288.896.433 1.6.433.524 0 1.002-.085 1.435-.254.432-.169.8-.393 1.102-.671a2.88 2.88 0 0 0 .936-2.148v-.597l-3.745.447zm-3.11-8.234c1.168-.557 2.577-.836 4.228-.836 2.214 0 3.87.488 4.967 1.462 1.097.975 1.646 2.507 1.646 4.595v9.22h-3.986v-2.03c-.403.597-.982 1.134-1.736 1.612-.755.477-1.726.716-2.914.716a5.92 5.92 0 0 1-2.054-.343 4.91 4.91 0 0 1-1.615-.955 4.28 4.28 0 0 1-1.057-1.462c-.252-.567-.377-1.199-.377-1.894 0-.677.12-1.289.362-1.836a4.217 4.217 0 0 1 1.011-1.417 5.299 5.299 0 0 1 1.525-.97 6.242 6.242 0 0 1 1.933-.462l4.137-.358c.523-.06.785-.259.785-.597v-.239c0-.437-.212-.795-.634-1.074-.423-.278-1.087-.417-1.993-.417a6.54 6.54 0 0 0-1.178.104c-.382.07-.744.18-1.087.328-.342.15-.644.343-.906.582a2.36 2.36 0 0 0-.604.895L94.815 9.39c.503-1.134 1.339-1.98 2.506-2.536zm23.614 10.666a3.65 3.65 0 0 0 1.253-.806c.353-.348.63-.77.83-1.268.202-.497.303-1.044.303-1.64s-.1-1.145-.302-1.642a3.713 3.713 0 0 0-.83-1.268 3.643 3.643 0 0 0-1.254-.805 4.27 4.27 0 0 0-1.57-.284c-1.127 0-2.068.358-2.823 1.074-.755.716-1.133 1.691-1.133 2.924 0 1.253.378 2.233 1.133 2.94.755.705 1.696 1.058 2.823 1.058a4.27 4.27 0 0 0 1.57-.283zm-9.39-11.174h3.985v2.088a5.971 5.971 0 0 1 2.084-1.805c.846-.447 1.822-.671 2.929-.671.926 0 1.807.174 2.642.522.835.348 1.57.856 2.205 1.522.633.666 1.132 1.486 1.494 2.461.363.975.544 2.089.544 3.342s-.181 2.367-.544 3.342c-.362.974-.855 1.795-1.48 2.46a6.31 6.31 0 0 1-2.174 1.523c-.825.348-1.7.522-2.627.522-1.187 0-2.2-.244-3.035-.732-.835-.487-1.514-1.088-2.038-1.804v8.115h-3.985V6.346zm27.84 11.174a3.65 3.65 0 0 0 1.254-.806c.352-.348.629-.77.83-1.268.202-.497.302-1.044.302-1.64s-.1-1.145-.301-1.642a3.725 3.725 0 0 0-.831-1.268 3.643 3.643 0 0 0-1.253-.805 4.27 4.27 0 0 0-1.57-.284c-1.128 0-2.069.358-2.824 1.074-.754.716-1.133 1.691-1.133 2.924 0 1.253.379 2.233 1.133 2.94.755.705 1.696 1.058 2.823 1.058.564 0 1.087-.094 1.57-.283zm-9.39-11.174h3.986v2.088a5.96 5.96 0 0 1 2.083-1.805c.846-.447 1.822-.671 2.93-.671.925 0 1.806.174 2.641.522a6.43 6.43 0 0 1 2.205 1.522c.634.666 1.132 1.486 1.494 2.461.363.975.544 2.089.544 3.342s-.181 2.367-.544 3.342c-.362.974-.855 1.795-1.48 2.46a6.309 6.309 0 0 1-2.173 1.523 6.69 6.69 0 0 1-2.627.522c-1.188 0-2.2-.244-3.035-.732-.836-.487-1.515-1.088-2.038-1.804v8.115h-3.986V6.346z"
					fill="#464646"/>
				<path d="M6.233 6.352l-1.63 10.774c-.266 1.662-2.72 1.625-2.932 0L.041 6.352c-.225-.993.493-1.947 1.467-1.947h3.26c.972 0 1.69.954 1.465 1.947zm16.36 0l-1.63 10.774c-.266 1.662-2.72 1.625-2.932 0l-1.63-10.774c-.225-.993.493-1.947 1.467-1.947h3.26c.973 0 1.69.954 1.465 1.947zM8.221 21.26l1.63-10.774c.267-1.66 2.72-1.624 2.932 0l1.63 10.774c.225.994-.493 1.948-1.466 1.948h-3.26c-.973 0-1.69-.954-1.466-1.948z"
					fill="#1bc5bd"/>
			</svg>